<svg xmlns="http://www.w3.org/2000/svg" width="27.606" height="29.748" viewBox="0 0 27.606 29.748">
  <path id="Path_23065" data-name="Path 23065" d="M256.625,422.574a8.412,8.412,0,0,0,4.5-7.439,8.7,8.7,0,0,0-.723-3.408,8.336,8.336,0,0,0-7.667-5.007h-.027a8.415,8.415,0,0,0-3.942,15.85,13.763,13.763,0,0,0-9.891,13.05.849.849,0,1,0,1.7,0,12.045,12.045,0,0,1,11.707-12.09l.131.009a3.986,3.986,0,0,0,.559,0l.109-.008a12.051,12.051,0,0,1,11.716,12.089.844.844,0,1,0,1.688,0A13.774,13.774,0,0,0,256.625,422.574Zm2.8-7.439a6.737,6.737,0,0,1-6.7,6.725h-.02a6.725,6.725,0,0,1-.021-13.449h0A6.756,6.756,0,0,1,259.429,415.135Z" transform="translate(-238.873 -406.72)" fill="#fff"/>
</svg>
