<svg xmlns="http://www.w3.org/2000/svg" width="70.506" height="70.506" viewBox="0 0 70.506 70.506">
  <g id="Group_7972" data-name="Group 7972" transform="translate(70.506 70.506) rotate(180)">
    <g id="Path_23069" data-name="Path 23069" transform="translate(0 0)" fill="none">
      <path d="M35.253,0A35.253,35.253,0,1,0,70.506,35.253,35.253,35.253,0,0,0,35.253,0Z" stroke="none"/>
      <path d="M 35.2529296875 0.9999923706054688 C 30.62837982177734 0.9999923706054688 26.14268112182617 1.905502319335938 21.92045974731445 3.691360473632812 C 17.84175872802734 5.416526794433594 14.17850875854492 7.886444091796875 11.0324592590332 11.03251266479492 C 7.886398315429688 14.17859268188477 5.416496276855469 17.84187316894531 3.691360473632812 21.92059326171875 C 1.905502319335938 26.14285278320312 1 30.62858200073242 1 35.253173828125 C 1 39.87776184082031 1.905502319335938 44.36349487304688 3.691360473632812 48.58575439453125 C 5.416496276855469 52.66447448730469 7.886398315429688 56.32775497436523 11.0324592590332 59.47382354736328 C 14.17850875854492 62.61990356445312 17.84175872802734 65.08981323242188 21.92045974731445 66.81497192382812 C 26.14268112182617 68.600830078125 30.62837982177734 69.50634765625 35.2529296875 69.50634765625 C 39.87747955322266 69.50634765625 44.36318206787109 68.600830078125 48.58539962768555 66.81497192382812 C 52.66410064697266 65.08981323242188 56.32735061645508 62.61990356445312 59.4734001159668 59.47382354736328 C 62.61946105957031 56.32775497436523 65.08936309814453 52.66447448730469 66.81449890136719 48.58575439453125 C 68.60035705566406 44.36349487304688 69.505859375 39.87776184082031 69.505859375 35.253173828125 C 69.505859375 30.62858200073242 68.60035705566406 26.14285278320312 66.81449890136719 21.92059326171875 C 65.08936309814453 17.84187316894531 62.61946105957031 14.17859268188477 59.4734001159668 11.03251266479492 C 56.32735061645508 7.886444091796875 52.66410064697266 5.416526794433594 48.58539962768555 3.691360473632812 C 44.36318206787109 1.905502319335938 39.87747955322266 0.9999923706054688 35.2529296875 0.9999923706054688 M 35.2529296875 -7.62939453125e-06 C 54.72257995605469 -7.62939453125e-06 70.505859375 15.78338241577148 70.505859375 35.253173828125 C 70.505859375 54.72296524047852 54.72257995605469 70.50634002685547 35.2529296875 70.50634002685547 C 15.78327941894531 70.50634002685547 0 54.72296524047852 0 35.253173828125 C 0 15.78338241577148 15.78327941894531 -7.62939453125e-06 35.2529296875 -7.62939453125e-06 Z" stroke="none" fill="#f8941c"/>
    </g>
    <path id="Path_29" data-name="Path 29" d="M3793.585,806.779l-9.953,9.953,9.953,9.953" transform="translate(-3753.314 -782.101)" fill="none" stroke="#f8941c" stroke-linecap="round" stroke-width="2"/>
  </g>
</svg>
