<svg xmlns="http://www.w3.org/2000/svg" xmlns:xlink="http://www.w3.org/1999/xlink" width="78" height="78" viewBox="0 0 78 78">
  <defs>
    <filter id="Path_23103" x="0" y="0" width="78" height="78" filterUnits="userSpaceOnUse">
      <feOffset dy="3" input="SourceAlpha"/>
      <feGaussianBlur stdDeviation="3" result="blur"/>
      <feFlood flood-opacity="0.161"/>
      <feComposite operator="in" in2="blur"/>
      <feComposite in="SourceGraphic"/>
    </filter>
  </defs>
  <g id="Group_7659" data-name="Group 7659" transform="translate(9 6)">
    <g transform="matrix(1, 0, 0, 1, -9, -6)" filter="url(#Path_23103)">
      <path id="Path_23103-2" data-name="Path 23103" d="M30,0A30,30,0,1,1,0,30,30,30,0,0,1,30,0Z" transform="translate(9 6)" fill="#fff"/>
    </g>
    <g id="Group_7658" data-name="Group 7658" transform="translate(26.013 42) rotate(-90)">
      <path id="Path_238" data-name="Path 238" d="M3.347,22.356V2.2L1.1,4.459a.643.643,0,1,1-.912-.907h0L3.531.189h0a.643.643,0,0,1,.911,0h0L7.787,3.55a.643.643,0,1,1-.912.907L4.629,2.2V22.356a.644.644,0,1,1-1.287,0Z" transform="translate(23) rotate(90)" fill="#f8941c"/>
    </g>
  </g>
</svg>
