<svg xmlns="http://www.w3.org/2000/svg" width="31.24" height="28.694" viewBox="0 0 31.24 28.694">
  <path id="Path_23121" data-name="Path 23121" d="M273.62,179.237l-12.885-12.888a9.554,9.554,0,0,1-2.734-6.9A9.028,9.028,0,0,1,273.62,153.4a9.029,9.029,0,0,1,15.619,6.057,9.549,9.549,0,0,1-2.734,6.891Zm-14.472-19.765.273,0a8.237,8.237,0,0,0,2.318,5.868l11.881,11.884L285.5,165.345a8.235,8.235,0,0,0,2.319-5.842h0a7.6,7.6,0,0,0-7.665-7.54,7.786,7.786,0,0,0-5.986,2.956l-.549.67-.548-.67a7.776,7.776,0,0,0-5.983-2.956,7.593,7.593,0,0,0-7.665,7.5Z" transform="translate(-258 -150.543)" fill="#fff"/>
</svg>
