<svg xmlns="http://www.w3.org/2000/svg" width="35.294" height="40" viewBox="0 0 35.294 40">
  <g id="customer-support" transform="translate(-2.353 0)">
    <path id="Vector" d="M34.109,15.975a16.47,16.47,0,0,0-32.925,0L0,17.16v8.033L1.176,26.37v5.473a5.81,5.81,0,0,0,5.8,5.8H8.438A3.535,3.535,0,0,0,11.765,40h2.353a3.535,3.535,0,0,0,3.328-2.356l.2,0a11.785,11.785,0,0,0,11.528-9.412h3.077l3.042-3.042V17.16ZM17.647,2.353a14.14,14.14,0,0,1,13.92,11.765H29.175a11.766,11.766,0,0,0-23.056,0H3.727A14.14,14.14,0,0,1,17.647,2.353Zm9.114,11.765c-3.8-.011-6.489.22-8.7-3.017L16.981,9.528l-.924,1.665c-1.347,2.427-3.16,2.924-5.469,2.924H8.533a9.413,9.413,0,0,1,18.228,0ZM5.882,25.882H4.017L2.353,24.219V18.134l1.664-1.664H5.882ZM3.529,31.843V28.235H6.117a11.661,11.661,0,0,0,3.072,5.826,3.534,3.534,0,0,0-.751,1.233H6.98a3.455,3.455,0,0,1-3.451-3.451Zm10.588,5.8H11.765a1.176,1.176,0,0,1,0-2.353h2.353a1.176,1.176,0,0,1,0,2.353ZM27.059,25.882a9.422,9.422,0,0,1-9.412,9.412l-.2,0a3.535,3.535,0,0,0-3.326-2.35c-2.416.005-2.377-.012-2.678.016a9.357,9.357,0,0,1-3.2-7.074V16.471h2.353a7.889,7.889,0,0,0,6.581-2.732c2.59,2.714,5.755,2.732,8.6,2.732h1.294Zm5.882-1.664-1.664,1.664H29.412V16.471h1.866l1.664,1.664Z" transform="translate(2.353 0)" fill="#fc8a00"/>
  </g>
</svg>
