<svg xmlns="http://www.w3.org/2000/svg" width="26.974" height="17.836" viewBox="0 0 26.974 17.836">
  <path id="Path_30" data-name="Path 30" d="M734.218,31.836a1.187,1.187,0,0,1-1.186-1.186V15.186A1.187,1.187,0,0,1,734.218,14h24.6a1.187,1.187,0,0,1,1.186,1.186V30.65a1.187,1.187,0,0,1-1.186,1.186Zm.246-1-.019.019-.329.367h24.827l-.354-.371-.014-.014-5.969-7.373a.307.307,0,1,1,.478-.387l6.307,7.791V15.054l-11.563,8.672a2.3,2.3,0,0,1-2.619,0l-11.562-8.672V30.867l6.307-7.791a.307.307,0,0,1,.478.387Zm12.062-7.315a1.592,1.592,0,0,0,.935-.287l11.491-8.619H734.086l11.492,8.62a1.59,1.59,0,0,0,.934.287h.014Z" transform="translate(-733.032 -14)"/>
</svg>
