<svg xmlns="http://www.w3.org/2000/svg" width="45.238" height="30.015" viewBox="0 0 45.238 30.015">
  <g id="Group_8060" data-name="Group 8060" transform="translate(-858.85 -1322.89)">
    <g id="Group_8055" data-name="Group 8055" transform="translate(859 1323.04)">
      <path id="Path_30" data-name="Path 30" d="M735.008,43.715a1.978,1.978,0,0,1-1.976-1.976V15.976A1.978,1.978,0,0,1,735.008,14h40.986a1.978,1.978,0,0,1,1.976,1.976V41.739a1.978,1.978,0,0,1-1.976,1.976Zm-.171-1.024H776.2s.747,0,.747-.59V15.756L757.682,30.2a3.827,3.827,0,0,1-4.363,0L734.056,15.756V42.1C734.056,42.619,734.221,42.691,734.837,42.691Zm20.676-12.829a2.651,2.651,0,0,0,1.558-.479l19.144-14.359H734.788l19.146,14.36a2.65,2.65,0,0,0,1.556.477h.023Z" transform="translate(-733.032 -14)" stroke="#000" stroke-width="0.3"/>
      <line id="Line_228" data-name="Line 228" y1="5.943" transform="translate(41.007 13.669)" fill="none" stroke="#fc8a00" stroke-linecap="round" stroke-width="1"/>
      <line id="Line_230" data-name="Line 230" y1="5.943" transform="translate(4.16 13.669)" fill="none" stroke="#fc8a00" stroke-linecap="round" stroke-width="1"/>
    </g>
  </g>
</svg>
