<svg xmlns="http://www.w3.org/2000/svg" width="40" height="38.75" viewBox="0 0 40 38.75">
  <g id="guarantee" transform="translate(0 -0.625)">
    <g id="Group">
      <path id="Vector" d="M37.857,13.549c-.528-1.634-.3-4.088-1.675-5.982S32.4,5.115,31.037,4.122,28.444,1,26.184.264c-2.2-.717-4.442.256-6.184.256S16.013-.453,13.816.264C11.557,1,10.306,3.14,8.963,4.122S5.2,5.658,3.817,7.567C2.447,9.46,2.67,11.919,2.143,13.549,1.641,15.1,0,16.963,0,19.375S1.639,23.644,2.143,25.2c.528,1.634.3,4.088,1.675,5.982C5.2,33.093,7.6,33.635,8.963,34.628s2.594,3.121,4.854,3.858c2.195.716,4.444-.256,6.184-.256s3.992.971,6.184.256c2.26-.737,3.51-2.876,4.853-3.858s3.763-1.536,5.145-3.445c1.371-1.893,1.148-4.352,1.675-5.982.5-1.552,2.143-3.414,2.143-5.826s-1.639-4.268-2.143-5.826ZM34.884,24.24c-.615,1.9-.454,4.035-1.232,5.11s-2.86,1.586-4.459,2.756c-1.581,1.156-2.689,2.989-3.978,3.41-1.219.4-3.207-.41-5.214-.41s-3.989.81-5.214.41c-1.289-.421-2.4-2.252-3.978-3.41s-3.673-1.67-4.459-2.756-.621-3.217-1.232-5.11c-.6-1.855-1.991-3.46-1.991-4.865s1.391-3.006,1.991-4.865c.615-1.9.454-4.036,1.232-5.11S9.21,7.813,10.807,6.644s2.687-2.989,3.978-3.41C16,2.837,18,3.645,20,3.645c2.026,0,3.988-.81,5.214-.41,1.289.42,2.4,2.253,3.978,3.41s3.673,1.67,4.459,2.756.62,3.215,1.232,5.11h0c.6,1.855,1.991,3.46,1.991,4.865s-1.391,3.006-1.991,4.865ZM27.2,14.36a1.562,1.562,0,0,1,0,2.21L19.378,24.39a1.563,1.563,0,0,1-2.21,0L12.8,20.024a1.562,1.562,0,1,1,2.21-2.21l3.262,3.262,6.716-6.716a1.563,1.563,0,0,1,2.21,0Z" transform="translate(0 0.625)" fill="#fc8a00"/>
    </g>
  </g>
</svg>
