<svg xmlns="http://www.w3.org/2000/svg" width="29.017" height="30.741" viewBox="0 0 29.017 30.741">
  <path id="Path_23108" data-name="Path 23108" d="M140.939,97.518h-4.76a11.708,11.708,0,0,0-2.99-5.321,8.308,8.308,0,0,0-6-2.493c-4,.06-7.51,3.37-8.837,7.814h-4.819a.806.806,0,0,0-.806.805v21.315a.807.807,0,0,0,.806.806h27.4a.807.807,0,0,0,.805-.806V98.323A.806.806,0,0,0,140.939,97.518Zm-13.723-6.2a6.639,6.639,0,0,1,4.841,2.03,9.951,9.951,0,0,1,2.436,4.173H120.027C121.3,93.744,124.333,91.36,127.216,91.316Zm12.917,27.517H114.34V99.13h3.638a13.619,13.619,0,0,0-.19,2.261.806.806,0,1,0,1.612,0,12.468,12.468,0,0,1,.207-2.261h15.276a13.635,13.635,0,0,1,.19,2.261.806.806,0,1,0,1.612,0,15.179,15.179,0,0,0-.18-2.261h3.628Z" transform="translate(-112.728 -89.704)" fill="#fff"/>
</svg>
