<svg id="Group_8065" data-name="Group 8065" xmlns="http://www.w3.org/2000/svg" width="22.757" height="33.498" viewBox="0 0 22.757 33.498">
  <path id="Path_23176" data-name="Path 23176" d="M278.935,335.054c.276-.53.552-1,.778-1.5a8.978,8.978,0,0,0,.81-3.732c0-.9.027-1.8.029-2.693,0-1.871,0-3.742,0-5.613,0-.722.03-1.444.021-2.166a9.615,9.615,0,0,0-18.635-3.5,9.95,9.95,0,0,0-.581,3.464c-.008,3.419-.038,6.839.006,10.257a9.439,9.439,0,0,0,5.157,8.616,7.987,7.987,0,0,0,3.556,1.035c.576.026,1.153,0,1.73.01a.616.616,0,0,1,.368.11c.292.251.56.53.908.867-.45.067-.812.146-1.177.171a10.73,10.73,0,0,1-11.556-9.132,10.114,10.114,0,0,1-.11-1.556c-.009-3.5-.043-6.993,0-10.488a10.457,10.457,0,0,1,6.179-9.793,10.287,10.287,0,0,1,5.12-.979,10.724,10.724,0,0,1,9.682,7.635,11.73,11.73,0,0,1,.454,3.255q0,5.041,0,10.083a10.974,10.974,0,0,1-1.418,5.6c-.324.563-.171.456-.768.29A4.742,4.742,0,0,1,278.935,335.054Z" transform="translate(-260.223 -308.416)" fill="#090047"/>
  <path id="Path_23177" data-name="Path 23177" d="M290.626,346.859c-.124-.143-.214-.256-.314-.359a.834.834,0,0,1-.156-1.14,6.539,6.539,0,0,0,.758-3.208c.008-3.525.014-7.05,0-10.575a7.334,7.334,0,0,0-14.536-1.351,7.781,7.781,0,0,0-.14,1.436c-.012,3.5-.02,6.992,0,10.488a7.364,7.364,0,0,0,5.852,7.211c.3.064.61.089.914.143a.352.352,0,0,1,.219.106c.21.32.4.652.614,1a10.622,10.622,0,0,1-1.137-.005,8.423,8.423,0,0,1-7.364-6.493,8.024,8.024,0,0,1-.207-1.747q-.029-5.432-.009-10.864a8.466,8.466,0,0,1,15.963-3.818,8.153,8.153,0,0,1,.963,3.838q.017,5.4,0,10.806a8.2,8.2,0,0,1-1.181,4.186C290.8,346.607,290.731,346.7,290.626,346.859Z" transform="translate(-272.843 -320.907)" fill="#090047"/>
  <path id="Path_23178" data-name="Path 23178" d="M301.805,357.108a13.372,13.372,0,0,1-.629-1.326,2.018,2.018,0,0,1,.025-.739c.009-.144.031-.288.031-.432,0-3.447.014-6.895-.006-10.342a4.994,4.994,0,0,0-2.353-4.37,5.07,5.07,0,0,0-7.7,3.222,5.773,5.773,0,0,0-.114,1.119c-.009,3.486-.035,6.972,0,10.458a4.991,4.991,0,0,0,3.109,4.721,1.129,1.129,0,0,1,.437.42c.185.3.323.63.48.947l-.05.078a9.96,9.96,0,0,1-1-.282,6.165,6.165,0,0,1-4.085-5.176,2.235,2.235,0,0,1-.012-.318c0-3.727-.026-7.455,0-11.182a6.117,6.117,0,0,1,4.08-5.589,6.211,6.211,0,0,1,8.24,4.783,4.877,4.877,0,0,1,.085.891q.008,5.461,0,10.922a5.636,5.636,0,0,1-.461,2.184Z" transform="translate(-285.409 -333.458)" fill="#090047"/>
  <path id="Path_23179" data-name="Path 23179" d="M330.623,466.092c-.05.313-.108.576-.13.843-.019.225-.142.3-.337.31a11.039,11.039,0,0,1-5.474-.947,10.905,10.905,0,0,1-3.083-2.123,10.456,10.456,0,0,1-2.017-2.774c-.75-1.481-1.484-2.971-2.233-4.452-.1-.207-.118-.33.14-.4a1.332,1.332,0,0,0,.39-.189c.244-.168.352-.077.472.164q1.107,2.23,2.243,4.447a9.338,9.338,0,0,0,5.506,4.711,8.975,8.975,0,0,0,4.249.413A2.22,2.22,0,0,1,330.623,466.092Z" transform="translate(-308.599 -433.778)" fill="#090047"/>
  <path id="Path_23180" data-name="Path 23180" d="M342.335,458.237a9.292,9.292,0,0,1-.184,1.007.428.428,0,0,1-.328.2,15.854,15.854,0,0,1-2.129.057,8.039,8.039,0,0,1-4.715-1.994,8.512,8.512,0,0,1-2.073-2.647q-1.081-2.179-2.179-4.349c-.106-.21-.1-.333.133-.418a3.367,3.367,0,0,0,.338-.164c.349-.173.388-.164.568.2.737,1.475,1.445,2.965,2.213,4.424a7.108,7.108,0,0,0,4.128,3.509,7.194,7.194,0,0,0,3.991.221C342.152,458.27,342.208,458.261,342.335,458.237Z" transform="translate(-319.944 -428.31)" fill="#090047"/>
  <path id="Path_23181" data-name="Path 23181" d="M353.647,449.85c-.059.372-.107.737-.183,1.1-.013.063-.143.119-.229.145a6.085,6.085,0,0,1-5.158-.715,5.606,5.606,0,0,1-2.059-2.19c-.822-1.572-1.608-3.164-2.407-4.748a.979.979,0,0,1-.042-.144l.947-.476c.071.133.136.247.195.364.749,1.481,1.464,2.98,2.255,4.438a4.855,4.855,0,0,0,3.9,2.606,4.967,4.967,0,0,0,2.463-.33,1.294,1.294,0,0,1,.165-.054A.791.791,0,0,1,353.647,449.85Z" transform="translate(-330.889 -422.371)" fill="#090047"/>
</svg>
