<svg xmlns="http://www.w3.org/2000/svg" width="40" height="37.314" viewBox="0 0 40 37.314">
  <g id="shipping" transform="translate(0 -1.343)">
    <path id="Vector" d="M36.9,19.392V1.177A1.177,1.177,0,0,0,35.722,0H4.2A1.177,1.177,0,0,0,3.02,1.177V20.844A3.532,3.532,0,0,0,.789,26.579L6.089,33c3.281,3.84,6.766,4.31,11.947,4.31,4.446,0,6.434.02,10.308-.863l3.773-.9a3.293,3.293,0,0,0,2.675,1.408h1.859A3.446,3.446,0,0,0,40,33.428V22.909A3.462,3.462,0,0,0,36.9,19.392Zm-5.289,2.42-1.568-.8a9.322,9.322,0,0,0-8.177-.132c-.714.281-2.273,1.224-3.081,1.192h-5.44a3.276,3.276,0,0,0-3.273,3.273v.858l-.031-.032L6.156,21.958a3.584,3.584,0,0,0-.783-.64V9.644H15v4.313a1.177,1.177,0,0,0,1.177,1.177H23.6a1.177,1.177,0,0,0,1.177-1.177V9.644h9.765v9.747a3.393,3.393,0,0,0-2.936,2.421ZM17.356,9.644h5.071v3.137H17.356ZM34.545,7.291H24.781V2.353h9.765V7.291ZM22.428,2.353V7.291H17.356V2.353ZM15,2.353V7.291H5.373V2.353ZM27.8,34.161a37.434,37.434,0,0,1-9.72.787c-4.864,0-7.213-.079-10.173-3.442L2.6,25.081a1.19,1.19,0,0,1,1.821-1.529L8.31,27.77a5.342,5.342,0,0,0,3.911,1.715H22.993a1.177,1.177,0,0,0,0-2.353H12.425V25.348a.92.92,0,0,1,.919-.919h5.44c1.226.088,2.995-.936,4.073-1.412a6.98,6.98,0,0,1,6.121.1l2.464,1.252V33.29Zm9.849-.734a1.1,1.1,0,0,1-1,1.175H34.792a1.1,1.1,0,0,1-1-1.175V22.909a1.1,1.1,0,0,1,1-1.175h1.859a1.1,1.1,0,0,1,1,1.175Z" transform="translate(0 1.343)" fill="#fc8a00"/>
  </g>
</svg>
