<svg xmlns="http://www.w3.org/2000/svg" width="19.865" height="29.135" viewBox="0 0 19.865 29.135">
  <g id="Group_8047" data-name="Group 8047" transform="translate(-1386 -611.271)">
    <path id="Path_23127" data-name="Path 23127" d="M1.224,127.764H.264a.264.264,0,0,1,0-.528h.96a.264.264,0,1,1,0,.528" transform="translate(1388 498.339)" stroke="#000" stroke-width="0.3"/>
    <path id="Path_23160" data-name="Path 23160" d="M1.224,127.764H.264a.264.264,0,0,1,0-.528h.96a.264.264,0,1,1,0,.528" transform="translate(1402 498.339)" stroke="#000" stroke-width="0.3"/>
    <path id="Path_23161" data-name="Path 23161" d="M1.224,127.764H.264a.264.264,0,0,1,0-.528h.96a.264.264,0,1,1,0,.528" transform="translate(1268.264 619.583) rotate(-90)" stroke="#000" stroke-width="0.3"/>
    <path id="Path_23162" data-name="Path 23162" d="M1.224,127.764H.264a.264.264,0,0,1,0-.528h.96a.264.264,0,1,1,0,.528" transform="translate(1268.264 633.583) rotate(-90)" stroke="#000" stroke-width="0.3"/>
    <path id="Path_23129" data-name="Path 23129" d="M101.018,76.8a.362.362,0,0,1-.255-.1l-1.884-1.858a.364.364,0,0,1,.511-.518l1.625,1.6,3.46-3.507a.364.364,0,1,1,.518.511l-3.716,3.766a.363.363,0,0,1-.259.108" transform="translate(1294.094 550.404)" fill="#fc8a00" stroke="#fc8a00" stroke-width="1"/>
    <g id="Group_8046" data-name="Group 8046" transform="translate(-11502.359 -8439.323)">
      <path id="Path_23157" data-name="Path 23157" d="M814.442,882.224h-10.3a4.787,4.787,0,0,1-4.782-4.782v-10.3a4.788,4.788,0,0,1,4.782-4.782h10.3a4.788,4.788,0,0,1,4.783,4.782v10.3a4.788,4.788,0,0,1-4.783,4.782m-10.3-18.541a3.462,3.462,0,0,0-3.458,3.458v10.3a3.462,3.462,0,0,0,3.458,3.458h10.3a3.462,3.462,0,0,0,3.458-3.458v-10.3a3.462,3.462,0,0,0-3.458-3.458Z" transform="translate(12089 8192.87)"/>
      <path id="Path_23158" data-name="Path 23158" d="M907.487,734.554a.662.662,0,0,1-.662-.662v-2.649a1.326,1.326,0,0,0-1.324-1.324h-7.946a1.326,1.326,0,0,0-1.324,1.324v2.649a.662.662,0,1,1-1.324,0v-2.649a2.652,2.652,0,0,1,2.649-2.649H905.5a2.652,2.652,0,0,1,2.649,2.649v2.649a.662.662,0,0,1-.662.662" transform="translate(11996.764 8322)"/>
      <path id="Path_23159" data-name="Path 23159" d="M905.5,1403.382h-7.946a2.652,2.652,0,0,1-2.649-2.649v-2.649a.662.662,0,1,1,1.324,0v2.649a1.326,1.326,0,0,0,1.324,1.324H905.5a1.326,1.326,0,0,0,1.324-1.324v-2.649a.662.662,0,1,1,1.324,0v2.649a2.651,2.651,0,0,1-2.649,2.649" transform="translate(11996.764 7676.348)"/>
    </g>
  </g>
</svg>
