<svg id="Group_78" data-name="Group 78" xmlns="http://www.w3.org/2000/svg" width="20.857" height="20.857" viewBox="0 0 20.857 20.857">
  <g id="Group_77" data-name="Group 77" transform="translate(0 0)">
    <path id="Path_28" data-name="Path 28" d="M-425.789,8a10.44,10.44,0,0,0-10.428,10.428,10.387,10.387,0,0,0,1.579,5.52c-.412,1.443-1.156,4.173-1.164,4.2a.4.4,0,0,0,.108.393.4.4,0,0,0,.4.1l4.134-1.271a10.4,10.4,0,0,0,5.375,1.49A10.44,10.44,0,0,0-415.36,18.428,10.44,10.44,0,0,0-425.789,8Zm0,20.055a9.6,9.6,0,0,1-5.106-1.464.4.4,0,0,0-.213-.061.407.407,0,0,0-.118.018l-3.609,1.111c.265-.968.742-2.7,1.018-3.662a.4.4,0,0,0-.049-.329,9.589,9.589,0,0,1-1.549-5.238A9.637,9.637,0,0,1-425.789,8.8a9.637,9.637,0,0,1,9.626,9.626A9.637,9.637,0,0,1-425.789,28.055Z" transform="translate(436.217 -8)"/>
    <path id="Path_29" data-name="Path 29" d="M-335.193,108.582c-.74-.411-1.371-.823-1.831-1.124-.351-.229-.605-.4-.791-.489a.911.911,0,0,0-1.064.075.4.4,0,0,0-.05.061,5.638,5.638,0,0,1-1.452,1.628,9.658,9.658,0,0,1-2.466-1.6,5.339,5.339,0,0,1-1.951-2.465c.727-.748.989-1.219.989-1.755a11.351,11.351,0,0,0-1.521-3.091c-.234-.233-.76-.27-1.565-.11a.405.405,0,0,0-.2.11c-.1.1-2.378,2.423-1.294,5.241,1.19,3.093,4.243,6.688,8.136,7.272a8.439,8.439,0,0,0,1.245.1A3.692,3.692,0,0,0-334.992,109,.4.4,0,0,0-335.193,108.582Zm-4.948,2.962c-4.117-.617-6.71-4.7-7.506-6.766a4.415,4.415,0,0,1,1.033-4.3,3.026,3.026,0,0,1,.742-.051,14.4,14.4,0,0,1,1.261,2.488c0,.211-.069.5-.885,1.321a.4.4,0,0,0-.118.284c0,2.1,4.43,5.014,5.214,5.014.682,0,1.572-1.147,2.078-1.894a.381.381,0,0,1,.149.047c.144.073.395.236.711.443.418.273.973.636,1.628,1.012C-336.132,110.573-336.964,112.021-340.141,111.544Z" transform="translate(352.434 -95.697)"/>
  </g>
</svg>
